<?xml version="1.0" encoding="UTF-8" standalone="no"?>
<!-- Created with Inkscape (http://www.inkscape.org/) -->

<svg
   width="837.2403"
   height="281.18094"
   viewBox="0 0 837.24029 281.18094"
   version="1.1"
   id="svg5"
   inkscape:version="1.1.2 (b8e25be833, 2022-02-05)"
   sodipodi:docname="icon.svg"
   inkscape:export-filename="C:\Users\Pc\Documents\build-noteprof-Desktop_Qt_6_2_4_MinGW_64_bit-Release\add.png"
   inkscape:export-xdpi="2.9823906"
   inkscape:export-ydpi="2.9823906"
   xmlns:inkscape="http://www.inkscape.org/namespaces/inkscape"
   xmlns:sodipodi="http://sodipodi.sourceforge.net/DTD/sodipodi-0.dtd"
   xmlns:xlink="http://www.w3.org/1999/xlink"
   xmlns="http://www.w3.org/2000/svg"
   xmlns:svg="http://www.w3.org/2000/svg">
  <sodipodi:namedview
     id="namedview7"
     pagecolor="#505050"
     bordercolor="#ffffff"
     borderopacity="1"
     inkscape:pageshadow="0"
     inkscape:pageopacity="0"
     inkscape:pagecheckerboard="1"
     inkscape:document-units="px"
     showgrid="false"
     inkscape:zoom="0.092335831"
     inkscape:cx="-666.04696"
     inkscape:cy="1153.3984"
     inkscape:window-width="1294"
     inkscape:window-height="728"
     inkscape:window-x="56"
     inkscape:window-y="0"
     inkscape:window-maximized="0"
     inkscape:current-layer="layer1"
     inkscape:snap-bbox="true"
     inkscape:snap-center="true" />
  <defs
     id="defs2">
    <linearGradient
       inkscape:collect="always"
       id="linearGradient1456">
      <stop
         style="stop-color:#009900;stop-opacity:1;"
         offset="0"
         id="stop1452" />
      <stop
         style="stop-color:#1be533;stop-opacity:1"
         offset="1"
         id="stop1454" />
    </linearGradient>
    <linearGradient
       inkscape:collect="always"
       id="linearGradient1423">
      <stop
         style="stop-color:#000000;stop-opacity:1;"
         offset="0"
         id="stop1419" />
      <stop
         style="stop-color:#000000;stop-opacity:0;"
         offset="1"
         id="stop1421" />
    </linearGradient>
    <linearGradient
       inkscape:collect="always"
       xlink:href="#linearGradient1423"
       id="linearGradient1425"
       x1="-2622.5315"
       y1="-1429.5643"
       x2="-1785.2913"
       y2="-1429.5643"
       gradientUnits="userSpaceOnUse" />
    <linearGradient
       inkscape:collect="always"
       xlink:href="#linearGradient1456"
       id="linearGradient1458"
       x1="-2622.5312"
       y1="-1429.5645"
       x2="-1785.291"
       y2="-1429.5645"
       gradientUnits="userSpaceOnUse" />
    <linearGradient
       inkscape:collect="always"
       xlink:href="#linearGradient1423"
       id="linearGradient1555"
       gradientUnits="userSpaceOnUse"
       x1="-2622.5315"
       y1="-1429.5643"
       x2="-1785.2913"
       y2="-1429.5643" />
  </defs>
  <g
     inkscape:label="Calque 1"
     inkscape:groupmode="layer"
     id="layer1"
     transform="translate(1171.3073,1532.2496)">
    <path
       d="m 363.18768,68.401734 c 0,18 -15,32.099996 -32,32.099996 h -32 l 0.7,160.1 c 0,2.8 -0.2,5.4 -0.5,8.1 v 16.2 c 0,22.1 -17.9,40 -40,40 h -16 c -1.1,0 -2.2,-0.9 -3.3,-0.1 -1.4,-0.8 -2.8,0.1 -4.2,0.1 h -56.5 c -22.1,0 -40,-17.9 -40,-40 v -88 c 0,-17.7 -14.3,-32 -32,-32 H 43.387678 c -17.7,0 -32,14.3 -32,32 v 88 c 0,22.1 -17.8999999,40 -40,40 h -55.9 c -1.5,0 -3,-0.1 -4.5,-0.2 -1.2,0.1 -2.4,0.2 -3.6,0.2 h -15.999998 c -22.09,0 -40,-17.9 -40,-40 v -112 c 0,-0.9 0.03,-1.9 0.09,-2.8 v -69.6 h -32.04 c -18.03,0 -32.05,-14.099996 -32.05,-32.099996 0,-9 3.004,-17 10.01,-24 L 53.787678,-179.08227 c 7,-7.014 15,-8.016 22,-8.016 7,0 15,2.004 21.1,7.014 L 352.18768,44.401734 c 8,7 12.1,15 11,24 z"
       id="path824"
       style="fill:#009900"
       inkscape:export-filename="C:\Users\Pc\Documents\build-noteprof-Desktop_Qt_6_2_4_MinGW_64_bit-Release\home.png"
       inkscape:export-xdpi="4.0001659"
       inkscape:export-ydpi="4.0001659" />
    <path
       d="m -1848.7076,163.02496 c 0,-35.35 28.65,-64.000001 64,-64.000001 h 160 V 227.02496 c 0,17.7 14.3,32 32,32 h 128 v 139.6 l -94.7,94.7 c -8.2,8.2 -14,18.5 -16.8,29.8 l -15.1,60.1 c -2.3,9.4 -1.7,19 1.4,27.8 h -194.8 c -35.35,0 -64,-28.7 -64,-64 z m 256,64 V 99.024959 l 128,128.000001 z m 308.1,122.1 c 15.7,15.6 15.7,40.9 0,56.6 l -29.4,29.4 -70.9,-71 29.4,-29.4 c 15.6,-15.6 40.9,-15.6 56.6,0 z m -252.2,166 129.2,-128.3 71,70.9 -129.2,129.2 c -4.1,4.1 -9.3,7 -14.9,8.4 l -60.1,15.1 c -5.5,1.3 -11.2,-0.3 -15.2,-4.2 -4,-4 -5.6,-9.8 -4.2,-16.1 l 15,-59.3 c 1.4,-5.6 4.3,-10.7 8.4,-15.7 z"
       id="path851"
       style="fill:#009900"
       inkscape:export-filename="C:\Users\Pc\Documents\build-noteprof-Desktop_Qt_6_2_4_MinGW_64_bit-Release\edit.png"
       inkscape:export-xdpi="4.0008683"
       inkscape:export-ydpi="4.0008683" />
    <rect
       style="fill:#e00000;fill-opacity:0.99812;stroke:none;stroke-width:3"
       id="rect1205"
       width="270.75079"
       height="833.91248"
       x="-1517.4918"
       y="353.11343"
       transform="rotate(90.718105)"
       inkscape:export-filename="C:\Users\Pc\Documents\build-noteprof-Desktop_Qt_6_2_4_MinGW_64_bit-Release\rermove.png"
       inkscape:export-xdpi="2.9823906"
       inkscape:export-ydpi="2.9823906" />
    <g
       id="g1417"
       inkscape:export-filename="C:\Users\Pc\Documents\build-noteprof-Desktop_Qt_6_2_4_MinGW_64_bit-Release\add.png"
       inkscape:export-xdpi="2.9823906"
       inkscape:export-ydpi="2.9823906"
       style="fill:url(#linearGradient1425);fill-opacity:1">
      <g
         id="g1429"
         style="fill:url(#linearGradient1555)">
        <path
           id="rect1167"
           style="fill:url(#linearGradient1458);fill-opacity:1;stroke:none;stroke-width:2.42491"
           d="m -2291.0527,-1847.75 -1.0313,329.0078 -327.0547,-2.6777 -3.3925,176.8828 329.8925,2.7012 -1.0293,327.957 176.8985,2.5 1.0312,-329.0078 327.0528,2.6777 3.3945,-176.8828 -329.8926,-2.7012 1.0293,-327.957 z"
           inkscape:export-filename="C:\Users\Pc\Documents\build-noteprof-Desktop_Qt_6_2_4_MinGW_64_bit-Release\add.png"
           inkscape:export-xdpi="2.9823906"
           inkscape:export-ydpi="2.9823906" />
      </g>
    </g>
  </g>
</svg>
